<svg width="516" height="190" viewBox="0 0 516 190" fill="none" xmlns="http://www.w3.org/2000/svg">
<path d="M86.9787 0.581789C95.8764 -0.385171 105.268 -0.105575 114.632 1.11506C116.974 1.46693 119.277 1.78607 121.683 2.20341C124.162 2.74212 126.673 3.14309 129.142 3.87001L132.858 4.87651L136.542 6.0917C139.005 6.85681 141.392 7.92333 143.806 8.86301C153.333 13.0364 162.333 18.5735 170.092 25.2427C177.944 31.8191 184.538 39.4225 190.123 47.1745C193.46 51.843 196.429 56.8673 198.952 62.174C201.421 67.5066 203.429 73.1038 204.956 78.8715C207.952 90.4122 208.908 102.606 207.771 114.539C207.27 120.52 206.158 126.415 204.698 132.172L203.531 136.465L202.159 140.682C201.246 143.497 200.151 146.07 199.141 148.764C194.748 159.326 189.074 169.355 182.278 178.421C181.113 177.503 181.464 173.224 178.727 175.738C173.387 180.856 169.895 182.55 167.703 182.919C165.51 183.287 164.398 182.188 163.348 181.17C162.358 180.213 170.171 173.599 166.829 175.172C170.05 171.296 173.982 165.82 175.796 162.031C176.793 160.196 177.325 158.815 177.225 158.397C177.111 157.969 176.511 158.584 174.834 160.448C174.075 160.943 173.14 162.042 172.115 163.444C171.059 164.83 169.825 166.457 168.585 168.079C167.317 169.678 165.942 171.196 164.717 172.428C163.461 173.632 162.222 174.436 161.281 174.671C159.378 175.116 159.115 173.748 158.812 172.422C158.517 171.091 158.183 169.8 156.349 170.174C154.4 172.493 149.999 176.607 147.706 178.542C144.553 179.334 147.008 173.22 144.831 175.139C141.059 177.283 137.068 180.142 132.491 182.694C127.958 185.305 122.944 187.796 117.632 189.539C117.407 188.835 116.406 188.373 116.208 187.757C116.109 187.444 116.208 187.097 116.704 186.657C117.096 186.234 117.803 185.723 118.991 185.106C129.855 180.987 139.686 174.198 147.789 165.44C155.877 156.654 162.233 146.015 166.744 134.491L168.355 130.131L169.686 125.86L170.788 121.543L171.651 117.199C172.641 111.388 172.988 105.526 172.669 99.7423C172.036 88.1851 168.734 76.9253 162.914 67.2748C160.022 62.4427 156.57 57.9829 152.605 54.0578C148.624 50.1491 144.166 46.7449 139.338 43.93C134.506 41.115 129.31 38.8879 123.861 37.2772C122.494 36.8762 121.098 36.5571 119.726 36.1779L115.509 35.3146C112.394 34.8523 109.208 34.259 106.097 33.9835C102.963 33.5648 99.8752 33.4339 96.782 33.2184L92.1913 33.1311C90.657 33.0752 89.1704 33.2143 87.6579 33.2293C81.6516 33.4775 75.8035 34.2195 70.2117 35.5165C59.0474 38.1937 49.0027 43.2521 40.2059 50.5323C38.1711 52.1866 36.8523 52.9463 36.0994 53.0718C35.2443 53.3473 35.1761 52.6599 35.4012 51.7038C35.6316 50.7355 36.2808 49.3171 37.1714 47.6573C38.0729 46.0126 39.359 44.3091 40.6356 42.5116C38.9417 44.8656 37.5069 43.1062 35.8049 45.5134C35.0493 44.6392 35.1761 42.648 36.6818 39.7566C38.1711 36.8748 41.2616 33.3016 46.4128 29.9425C43.7765 31.4877 41.1075 32.9934 38.6471 34.8304C35.6998 36.002 37.3419 33.0275 36.514 31.7959C39.0794 29.877 41.8835 28.3427 41.4921 27.6717C41.1075 27.0348 40.3437 25.7637 39.9632 25.1268C39.2513 25.5605 38.3634 26.0992 37.3842 26.6938C36.4022 27.2871 35.4107 28.0576 34.3756 28.7614C33.3636 29.4924 32.3134 30.1743 31.4188 30.8835C30.5309 31.6036 29.7221 32.2637 29.0757 32.7861C31.6042 30.6203 34.3756 28.7723 33.95 28.1558C33.5245 27.5517 32.6694 26.331 32.2425 25.7255C33.5463 24.5649 35.1175 23.3947 36.9273 22.3882C38.703 21.3326 40.5946 20.2606 42.5899 19.3918C44.5634 18.474 46.5178 17.5452 48.4353 16.8033C50.3406 16.0218 52.0863 15.1476 53.6698 14.4452L52.8951 12.3613C51.1466 12.7295 49.2877 13.4987 47.3279 14.2911C45.349 15.0507 43.3823 16.1104 41.4307 17.1783C39.4436 18.1957 37.5874 19.4382 35.8144 20.5825C34.0087 21.6872 32.4062 22.8751 30.9619 23.9089C33.4413 21.248 33.0731 20.6316 32.2603 19.3946C36.7241 16.1677 41.7334 13.7428 46.8547 11.8021C48.1339 11.3193 49.3914 10.7737 50.6679 10.2964C51.9595 9.84497 53.2347 9.37308 54.5058 8.86164C57.0261 7.7733 59.5915 6.91 62.0819 5.59117L56.8038 7.08047C55.0581 7.6301 53.3342 8.27929 51.6022 8.88347C53.0151 7.44326 55.2368 5.95396 58.0299 4.96927C59.4183 4.44692 60.9295 3.95183 62.517 3.49495C64.1113 3.12671 65.7833 2.79121 67.4895 2.47207C74.3237 1.3019 81.6148 1.07141 86.9787 0.581789Z" fill="#076DAE"/>
<path d="M0 119.594L31.8401 155.274L86.5082 128.1L79.0712 152.43L122.584 165.736L160.931 40.3171L0 119.594Z" fill="black"/>
<path d="M281.53 35.6284L308.119 91.9385H295.668L279.603 57.7185L262.172 91.9385H249.56L278.236 35.6284H281.53Z" fill="black"/>
<path d="M356.634 91.9385L324.985 59.0837V91.9385H313.739V35.6284H317.274L348.361 67.1167V35.6284H359.607V91.9385H356.634Z" fill="black"/>
<path d="M424.588 57.237V62.9405C424.588 80.6131 411.735 92.904 396.634 92.904H396.552C380.407 92.7431 367.554 79.8098 367.713 63.6647C367.874 47.6792 380.888 34.8264 396.874 34.8264H397.115C403.942 34.9069 410.127 37.3168 415.028 41.2528L406.916 49.2053C404.024 47.1964 400.649 46.1531 397.035 46.0726H396.875C392.134 46.0726 387.638 47.9206 384.264 51.2947C380.889 54.5884 378.961 59.0863 378.961 63.8257C378.88 68.565 380.728 73.1447 384.022 76.5175C387.396 79.9721 391.893 81.8992 396.634 81.8992C404.828 81.8992 411.816 76.0347 413.904 68.4845H401.212V57.2383H424.588V57.237Z" fill="black"/>
<path d="M446.271 80.6923H467.237V91.858H435.024V35.6284H446.271V80.6923Z" fill="black"/>
<path d="M515.11 46.8746H488.843V57.237H510.531V68.4832H488.843V80.6923H514.869V91.9385H477.597V35.6284H515.11V46.8746Z" fill="black"/>
<path d="M293.259 114.264V125.51H277.675V170.574H266.428V125.51H250.765V114.264H293.259Z" fill="black"/>
<path d="M329.082 170.574L318.558 148.001H312.935V170.494H301.689V114.184H322.897C332.214 114.184 339.764 121.816 339.764 131.134C339.764 137.961 335.749 143.825 329.885 146.477L341.051 170.576H329.082V170.574ZM312.935 125.43V136.757H322.897C326.029 136.757 328.52 134.266 328.52 131.134C328.52 128.001 326.029 125.43 322.897 125.43H312.935Z" fill="black"/>
<path d="M379.041 114.264L405.631 170.574H393.179L377.114 136.354L359.683 170.574H347.072L375.748 114.264H379.041Z" fill="black"/>
<path d="M446.434 127.92C435.508 120.852 419.041 127.438 419.041 142.541C419.041 158.365 436.473 164.711 447.076 156.678L454.306 164.951C449.246 169.129 442.739 171.7 435.671 171.7C419.605 171.7 406.51 158.605 406.51 142.541C406.51 126.476 419.605 113.382 435.671 113.382C442.418 113.382 448.683 115.711 453.664 119.567L446.434 127.92Z" fill="black"/>
<path d="M502.177 125.51H475.909V135.873H497.597V147.119H475.911V159.328H501.937V170.574H464.665V114.264H502.178V125.51H502.177Z" fill="black"/>
</svg>
